<?xml version="1.0" encoding="utf-8"?>
<svg xmlns="http://www.w3.org/2000/svg" viewBox="0 0 500 500" width="500px" height="500px" xmlns:bx="https://boxy-svg.com"><defs><bx:export><bx:file format="svg" path="logo.svg"/></bx:export></defs><g transform="translate(50, 50) scale(0.8)"><g transform="matrix(1.29594, 0, 0, 1.29594, -462.723602, -129.307556)" style=""><g transform="matrix(0.872691, 0, 0, 0.872691, 70.389191, 0.409539)" style=""><path d="M 549.54 141.788 C 632.328 141.788 699.442 208.903 699.442 291.691 C 699.442 327.955 686.559 361.207 665.126 387.134 L 622.888 344.895 C 633.684 330.049 640.053 311.776 640.053 292.015 C 640.053 242.309 599.759 202.015 550.053 202.015 C 500.347 202.015 460.053 242.309 460.053 292.015 C 460.053 312.108 466.638 330.664 477.767 345.641 L 435.009 388.399 C 412.942 362.296 399.635 328.548 399.635 291.691 C 399.635 208.903 466.75 141.788 549.538 141.788 L 549.54 141.788 Z" style="stroke-width: 0.259; fill: rgb(254, 127, 45);"/><path d="M 561.897 521.205 C 554.905 530.328 543.464 530.328 536.473 521.205 L 450.206 408.642 L 494.954 363.895 C 510.121 375.535 529.102 382.454 549.699 382.454 C 570.627 382.454 589.887 375.311 605.174 363.329 L 649.171 407.327 L 561.897 521.205 Z" style="stroke-width: 0.259; fill: rgb(51, 60, 193);"/><circle style="fill: rgb(51, 60, 193);" cx="549.966" cy="292.689" r="65"/></g></g></g></svg>